<mxfile host="app.diagrams.net" agent="Mozilla/5.0 (Windows NT 10.0; Win64; x64) AppleWebKit/537.36 (KHTML, like Gecko) Chrome/133.0.0.0 Safari/537.36" version="26.0.11">
  <diagram name="PÃ¡gina-1" id="CMzSOP2MckBoZvHu-s5m">
    <mxGraphModel dx="2033" dy="1138" grid="1" gridSize="10" guides="1" tooltips="1" connect="1" arrows="1" fold="1" page="1" pageScale="1" pageWidth="1169" pageHeight="827" math="0" shadow="0">
      <root>
        <mxCell id="0" />
        <mxCell id="1" parent="0" />
        <mxCell id="FkQ8xObF-9nmcdaI6U2C-1" value="PROFILE" style="rounded=0;whiteSpace=wrap;html=1;" vertex="1" parent="1">
          <mxGeometry x="200" y="280" width="120" height="60" as="geometry" />
        </mxCell>
        <mxCell id="FkQ8xObF-9nmcdaI6U2C-2" value="POST" style="rounded=0;whiteSpace=wrap;html=1;" vertex="1" parent="1">
          <mxGeometry x="560" y="280" width="120" height="60" as="geometry" />
        </mxCell>
        <mxCell id="FkQ8xObF-9nmcdaI6U2C-3" value="FOLLOWS" style="shape=rhombus;perimeter=rhombusPerimeter;whiteSpace=wrap;html=1;align=center;" vertex="1" parent="1">
          <mxGeometry x="200" y="140" width="120" height="60" as="geometry" />
        </mxCell>
        <mxCell id="FkQ8xObF-9nmcdaI6U2C-4" value="" style="endArrow=none;html=1;rounded=0;entryX=0.5;entryY=1;entryDx=0;entryDy=0;" edge="1" parent="1" target="FkQ8xObF-9nmcdaI6U2C-3">
          <mxGeometry width="50" height="50" relative="1" as="geometry">
            <mxPoint x="260" y="280" as="sourcePoint" />
            <mxPoint x="310" y="230" as="targetPoint" />
          </mxGeometry>
        </mxCell>
        <mxCell id="FkQ8xObF-9nmcdaI6U2C-6" value="(0, n)" style="edgeLabel;html=1;align=center;verticalAlign=middle;resizable=0;points=[];" vertex="1" connectable="0" parent="FkQ8xObF-9nmcdaI6U2C-4">
          <mxGeometry x="0.1333" y="1" relative="1" as="geometry">
            <mxPoint as="offset" />
          </mxGeometry>
        </mxCell>
        <mxCell id="FkQ8xObF-9nmcdaI6U2C-5" value="" style="endArrow=none;html=1;rounded=0;entryX=0;entryY=0.5;entryDx=0;entryDy=0;exitX=0.25;exitY=0;exitDx=0;exitDy=0;" edge="1" parent="1" source="FkQ8xObF-9nmcdaI6U2C-1" target="FkQ8xObF-9nmcdaI6U2C-3">
          <mxGeometry width="50" height="50" relative="1" as="geometry">
            <mxPoint x="200" y="310" as="sourcePoint" />
            <mxPoint x="199.51999999999998" y="240" as="targetPoint" />
            <Array as="points">
              <mxPoint x="230" y="260" />
              <mxPoint x="160" y="260" />
              <mxPoint x="160" y="170" />
            </Array>
          </mxGeometry>
        </mxCell>
        <mxCell id="FkQ8xObF-9nmcdaI6U2C-7" value="(0, n)" style="edgeLabel;html=1;align=center;verticalAlign=middle;resizable=0;points=[];" vertex="1" connectable="0" parent="FkQ8xObF-9nmcdaI6U2C-5">
          <mxGeometry x="0.0052" y="-1" relative="1" as="geometry">
            <mxPoint as="offset" />
          </mxGeometry>
        </mxCell>
        <mxCell id="FkQ8xObF-9nmcdaI6U2C-8" value="UPLOADS" style="shape=rhombus;perimeter=rhombusPerimeter;whiteSpace=wrap;html=1;align=center;" vertex="1" parent="1">
          <mxGeometry x="380" y="280" width="120" height="60" as="geometry" />
        </mxCell>
        <mxCell id="FkQ8xObF-9nmcdaI6U2C-9" value="" style="endArrow=none;html=1;rounded=0;" edge="1" parent="1" target="FkQ8xObF-9nmcdaI6U2C-8">
          <mxGeometry width="50" height="50" relative="1" as="geometry">
            <mxPoint x="320" y="310" as="sourcePoint" />
            <mxPoint x="370" y="260" as="targetPoint" />
          </mxGeometry>
        </mxCell>
        <mxCell id="FkQ8xObF-9nmcdaI6U2C-11" value="(0, n)" style="edgeLabel;html=1;align=center;verticalAlign=middle;resizable=0;points=[];" vertex="1" connectable="0" parent="FkQ8xObF-9nmcdaI6U2C-9">
          <mxGeometry x="-0.2349" y="-1" relative="1" as="geometry">
            <mxPoint as="offset" />
          </mxGeometry>
        </mxCell>
        <mxCell id="FkQ8xObF-9nmcdaI6U2C-10" value="" style="endArrow=none;html=1;rounded=0;" edge="1" parent="1">
          <mxGeometry width="50" height="50" relative="1" as="geometry">
            <mxPoint x="500" y="309.76" as="sourcePoint" />
            <mxPoint x="560" y="309.76" as="targetPoint" />
          </mxGeometry>
        </mxCell>
        <mxCell id="FkQ8xObF-9nmcdaI6U2C-12" value="(1, 1)" style="edgeLabel;html=1;align=center;verticalAlign=middle;resizable=0;points=[];" vertex="1" connectable="0" parent="FkQ8xObF-9nmcdaI6U2C-10">
          <mxGeometry x="-0.2825" y="-1" relative="1" as="geometry">
            <mxPoint as="offset" />
          </mxGeometry>
        </mxCell>
        <mxCell id="FkQ8xObF-9nmcdaI6U2C-13" value="COMMENTS" style="shape=rhombus;perimeter=rhombusPerimeter;whiteSpace=wrap;html=1;align=center;" vertex="1" parent="1">
          <mxGeometry x="380" y="450" width="120" height="60" as="geometry" />
        </mxCell>
        <mxCell id="FkQ8xObF-9nmcdaI6U2C-14" value="" style="endArrow=none;html=1;rounded=0;entryX=0;entryY=0.5;entryDx=0;entryDy=0;exitX=0.75;exitY=1;exitDx=0;exitDy=0;" edge="1" parent="1" source="FkQ8xObF-9nmcdaI6U2C-1" target="FkQ8xObF-9nmcdaI6U2C-13">
          <mxGeometry width="50" height="50" relative="1" as="geometry">
            <mxPoint x="260" y="340" as="sourcePoint" />
            <mxPoint x="310" y="290" as="targetPoint" />
            <Array as="points">
              <mxPoint x="290" y="480" />
            </Array>
          </mxGeometry>
        </mxCell>
        <mxCell id="FkQ8xObF-9nmcdaI6U2C-16" value="(0, n)" style="edgeLabel;html=1;align=center;verticalAlign=middle;resizable=0;points=[];" vertex="1" connectable="0" parent="FkQ8xObF-9nmcdaI6U2C-14">
          <mxGeometry x="0.4696" y="-1" relative="1" as="geometry">
            <mxPoint as="offset" />
          </mxGeometry>
        </mxCell>
        <mxCell id="FkQ8xObF-9nmcdaI6U2C-15" value="" style="endArrow=none;html=1;rounded=0;" edge="1" parent="1" target="FkQ8xObF-9nmcdaI6U2C-13">
          <mxGeometry width="50" height="50" relative="1" as="geometry">
            <mxPoint x="620" y="340" as="sourcePoint" />
            <mxPoint x="737" y="480" as="targetPoint" />
            <Array as="points">
              <mxPoint x="620" y="480" />
            </Array>
          </mxGeometry>
        </mxCell>
        <mxCell id="FkQ8xObF-9nmcdaI6U2C-17" value="(0, n)" style="edgeLabel;html=1;align=center;verticalAlign=middle;resizable=0;points=[];" vertex="1" connectable="0" parent="FkQ8xObF-9nmcdaI6U2C-15">
          <mxGeometry x="0.5267" y="1" relative="1" as="geometry">
            <mxPoint as="offset" />
          </mxGeometry>
        </mxCell>
        <mxCell id="FkQ8xObF-9nmcdaI6U2C-18" value="" style="ellipse;whiteSpace=wrap;html=1;aspect=fixed;fillColor=#0050ef;fontColor=#ffffff;strokeColor=#001DBC;" vertex="1" parent="1">
          <mxGeometry x="180" y="280" width="10" height="10" as="geometry" />
        </mxCell>
        <mxCell id="FkQ8xObF-9nmcdaI6U2C-19" value="" style="ellipse;whiteSpace=wrap;html=1;aspect=fixed;fillColor=#0050ef;fontColor=#ffffff;strokeColor=#001DBC;" vertex="1" parent="1">
          <mxGeometry x="180" y="300" width="10" height="10" as="geometry" />
        </mxCell>
        <mxCell id="FkQ8xObF-9nmcdaI6U2C-20" value="" style="ellipse;whiteSpace=wrap;html=1;aspect=fixed;" vertex="1" parent="1">
          <mxGeometry x="180" y="320" width="10" height="10" as="geometry" />
        </mxCell>
        <mxCell id="FkQ8xObF-9nmcdaI6U2C-22" value="id" style="text;html=1;align=center;verticalAlign=middle;resizable=0;points=[];autosize=1;strokeColor=none;fillColor=none;" vertex="1" parent="1">
          <mxGeometry x="140" y="270" width="30" height="30" as="geometry" />
        </mxCell>
        <mxCell id="FkQ8xObF-9nmcdaI6U2C-23" value="username" style="text;html=1;align=center;verticalAlign=middle;resizable=0;points=[];autosize=1;strokeColor=none;fillColor=none;" vertex="1" parent="1">
          <mxGeometry x="100" y="290" width="80" height="30" as="geometry" />
        </mxCell>
        <mxCell id="FkQ8xObF-9nmcdaI6U2C-24" value="(0, 1) picture" style="text;html=1;align=center;verticalAlign=middle;resizable=0;points=[];autosize=1;strokeColor=none;fillColor=none;" vertex="1" parent="1">
          <mxGeometry x="90" y="310" width="90" height="30" as="geometry" />
        </mxCell>
        <mxCell id="FkQ8xObF-9nmcdaI6U2C-26" value="" style="endArrow=none;html=1;rounded=0;exitX=1;exitY=0.5;exitDx=0;exitDy=0;entryX=0.001;entryY=0.087;entryDx=0;entryDy=0;entryPerimeter=0;" edge="1" parent="1" source="FkQ8xObF-9nmcdaI6U2C-18" target="FkQ8xObF-9nmcdaI6U2C-1">
          <mxGeometry width="50" height="50" relative="1" as="geometry">
            <mxPoint x="200" y="280" as="sourcePoint" />
            <mxPoint x="250" y="230" as="targetPoint" />
          </mxGeometry>
        </mxCell>
        <mxCell id="FkQ8xObF-9nmcdaI6U2C-27" value="" style="endArrow=none;html=1;rounded=0;exitX=1;exitY=0.5;exitDx=0;exitDy=0;entryX=0.001;entryY=0.087;entryDx=0;entryDy=0;entryPerimeter=0;" edge="1" parent="1">
          <mxGeometry width="50" height="50" relative="1" as="geometry">
            <mxPoint x="190" y="304.93" as="sourcePoint" />
            <mxPoint x="200" y="304.93" as="targetPoint" />
          </mxGeometry>
        </mxCell>
        <mxCell id="FkQ8xObF-9nmcdaI6U2C-28" value="" style="endArrow=none;html=1;rounded=0;exitX=1;exitY=0.5;exitDx=0;exitDy=0;entryX=0.001;entryY=0.087;entryDx=0;entryDy=0;entryPerimeter=0;" edge="1" parent="1">
          <mxGeometry width="50" height="50" relative="1" as="geometry">
            <mxPoint x="190" y="324.93" as="sourcePoint" />
            <mxPoint x="200" y="324.93" as="targetPoint" />
          </mxGeometry>
        </mxCell>
        <mxCell id="FkQ8xObF-9nmcdaI6U2C-30" value="" style="ellipse;whiteSpace=wrap;html=1;aspect=fixed;fillColor=#0050ef;fontColor=#ffffff;strokeColor=#001DBC;" vertex="1" parent="1">
          <mxGeometry x="690" y="282" width="10" height="10" as="geometry" />
        </mxCell>
        <mxCell id="FkQ8xObF-9nmcdaI6U2C-31" value="(1, 10) image" style="text;html=1;align=center;verticalAlign=middle;resizable=0;points=[];autosize=1;strokeColor=none;fillColor=none;" vertex="1" parent="1">
          <mxGeometry x="700" y="290" width="90" height="30" as="geometry" />
        </mxCell>
        <mxCell id="FkQ8xObF-9nmcdaI6U2C-33" value="(0, 1) description" style="text;html=1;align=center;verticalAlign=middle;resizable=0;points=[];autosize=1;strokeColor=none;fillColor=none;" vertex="1" parent="1">
          <mxGeometry x="700" y="310" width="110" height="30" as="geometry" />
        </mxCell>
        <mxCell id="FkQ8xObF-9nmcdaI6U2C-34" value="date" style="text;html=1;align=center;verticalAlign=middle;resizable=0;points=[];autosize=1;strokeColor=none;fillColor=none;" vertex="1" parent="1">
          <mxGeometry x="700" y="330" width="50" height="30" as="geometry" />
        </mxCell>
        <mxCell id="FkQ8xObF-9nmcdaI6U2C-35" value="id" style="text;html=1;align=center;verticalAlign=middle;resizable=0;points=[];autosize=1;strokeColor=none;fillColor=none;" vertex="1" parent="1">
          <mxGeometry x="700" y="272" width="30" height="30" as="geometry" />
        </mxCell>
        <mxCell id="FkQ8xObF-9nmcdaI6U2C-36" value="" style="ellipse;whiteSpace=wrap;html=1;aspect=fixed;" vertex="1" parent="1">
          <mxGeometry x="690" y="300" width="10" height="10" as="geometry" />
        </mxCell>
        <mxCell id="FkQ8xObF-9nmcdaI6U2C-37" value="" style="ellipse;whiteSpace=wrap;html=1;aspect=fixed;" vertex="1" parent="1">
          <mxGeometry x="690" y="320" width="10" height="10" as="geometry" />
        </mxCell>
        <mxCell id="FkQ8xObF-9nmcdaI6U2C-38" value="" style="ellipse;whiteSpace=wrap;html=1;aspect=fixed;" vertex="1" parent="1">
          <mxGeometry x="690" y="340" width="10" height="10" as="geometry" />
        </mxCell>
        <mxCell id="FkQ8xObF-9nmcdaI6U2C-39" value="" style="endArrow=none;html=1;rounded=0;exitX=1;exitY=0.5;exitDx=0;exitDy=0;entryX=0.001;entryY=0.087;entryDx=0;entryDy=0;entryPerimeter=0;" edge="1" parent="1">
          <mxGeometry width="50" height="50" relative="1" as="geometry">
            <mxPoint x="680" y="286.9" as="sourcePoint" />
            <mxPoint x="690" y="286.9" as="targetPoint" />
          </mxGeometry>
        </mxCell>
        <mxCell id="FkQ8xObF-9nmcdaI6U2C-40" value="" style="endArrow=none;html=1;rounded=0;exitX=1;exitY=0.5;exitDx=0;exitDy=0;entryX=0.001;entryY=0.087;entryDx=0;entryDy=0;entryPerimeter=0;" edge="1" parent="1">
          <mxGeometry width="50" height="50" relative="1" as="geometry">
            <mxPoint x="680" y="304.9" as="sourcePoint" />
            <mxPoint x="690" y="304.9" as="targetPoint" />
          </mxGeometry>
        </mxCell>
        <mxCell id="FkQ8xObF-9nmcdaI6U2C-41" value="" style="endArrow=none;html=1;rounded=0;exitX=1;exitY=0.5;exitDx=0;exitDy=0;entryX=0.001;entryY=0.087;entryDx=0;entryDy=0;entryPerimeter=0;" edge="1" parent="1">
          <mxGeometry width="50" height="50" relative="1" as="geometry">
            <mxPoint x="680" y="324.9" as="sourcePoint" />
            <mxPoint x="690" y="324.9" as="targetPoint" />
          </mxGeometry>
        </mxCell>
        <mxCell id="FkQ8xObF-9nmcdaI6U2C-42" value="" style="endArrow=none;html=1;rounded=0;exitX=1;exitY=1;exitDx=0;exitDy=0;entryX=0.001;entryY=0.087;entryDx=0;entryDy=0;entryPerimeter=0;" edge="1" parent="1" source="FkQ8xObF-9nmcdaI6U2C-2">
          <mxGeometry width="50" height="50" relative="1" as="geometry">
            <mxPoint x="680" y="344.9" as="sourcePoint" />
            <mxPoint x="690" y="344.9" as="targetPoint" />
            <Array as="points">
              <mxPoint x="680" y="345" />
            </Array>
          </mxGeometry>
        </mxCell>
        <mxCell id="FkQ8xObF-9nmcdaI6U2C-43" value="content" style="text;html=1;align=center;verticalAlign=middle;resizable=0;points=[];autosize=1;strokeColor=none;fillColor=none;" vertex="1" parent="1">
          <mxGeometry x="485" y="520" width="60" height="30" as="geometry" />
        </mxCell>
        <mxCell id="FkQ8xObF-9nmcdaI6U2C-44" value="date" style="text;html=1;align=center;verticalAlign=middle;resizable=0;points=[];autosize=1;strokeColor=none;fillColor=none;" vertex="1" parent="1">
          <mxGeometry x="415" y="540" width="50" height="30" as="geometry" />
        </mxCell>
        <mxCell id="FkQ8xObF-9nmcdaI6U2C-46" value="" style="ellipse;whiteSpace=wrap;html=1;aspect=fixed;" vertex="1" parent="1">
          <mxGeometry x="410" y="550" width="10" height="10" as="geometry" />
        </mxCell>
        <mxCell id="FkQ8xObF-9nmcdaI6U2C-47" value="" style="ellipse;whiteSpace=wrap;html=1;aspect=fixed;" vertex="1" parent="1">
          <mxGeometry x="475" y="530" width="10" height="10" as="geometry" />
        </mxCell>
        <mxCell id="FkQ8xObF-9nmcdaI6U2C-48" value="" style="endArrow=none;html=1;rounded=0;entryX=0.283;entryY=0.783;entryDx=0;entryDy=0;entryPerimeter=0;" edge="1" parent="1" target="FkQ8xObF-9nmcdaI6U2C-13">
          <mxGeometry width="50" height="50" relative="1" as="geometry">
            <mxPoint x="415" y="550" as="sourcePoint" />
            <mxPoint x="465" y="500" as="targetPoint" />
          </mxGeometry>
        </mxCell>
        <mxCell id="FkQ8xObF-9nmcdaI6U2C-49" value="" style="endArrow=none;html=1;rounded=0;" edge="1" parent="1">
          <mxGeometry width="50" height="50" relative="1" as="geometry">
            <mxPoint x="480.5" y="530" as="sourcePoint" />
            <mxPoint x="480" y="490" as="targetPoint" />
          </mxGeometry>
        </mxCell>
        <mxCell id="FkQ8xObF-9nmcdaI6U2C-50" value="USER" style="rounded=0;whiteSpace=wrap;html=1;" vertex="1" parent="1">
          <mxGeometry x="110" y="590" width="120" height="60" as="geometry" />
        </mxCell>
        <mxCell id="FkQ8xObF-9nmcdaI6U2C-53" value="HAS" style="shape=rhombus;perimeter=rhombusPerimeter;whiteSpace=wrap;html=1;align=center;" vertex="1" parent="1">
          <mxGeometry x="110" y="450" width="120" height="60" as="geometry" />
        </mxCell>
        <mxCell id="FkQ8xObF-9nmcdaI6U2C-54" value="" style="endArrow=none;html=1;rounded=0;entryX=0.242;entryY=1.05;entryDx=0;entryDy=0;entryPerimeter=0;exitX=0.5;exitY=0;exitDx=0;exitDy=0;" edge="1" parent="1" source="FkQ8xObF-9nmcdaI6U2C-53" target="FkQ8xObF-9nmcdaI6U2C-1">
          <mxGeometry width="50" height="50" relative="1" as="geometry">
            <mxPoint x="230" y="420" as="sourcePoint" />
            <mxPoint x="240" y="340" as="targetPoint" />
            <Array as="points">
              <mxPoint x="170" y="400" />
              <mxPoint x="230" y="400" />
            </Array>
          </mxGeometry>
        </mxCell>
        <mxCell id="FkQ8xObF-9nmcdaI6U2C-56" value="(1, 1)" style="edgeLabel;html=1;align=center;verticalAlign=middle;resizable=0;points=[];" vertex="1" connectable="0" parent="FkQ8xObF-9nmcdaI6U2C-54">
          <mxGeometry x="0.0131" relative="1" as="geometry">
            <mxPoint as="offset" />
          </mxGeometry>
        </mxCell>
        <mxCell id="FkQ8xObF-9nmcdaI6U2C-55" value="" style="endArrow=none;html=1;rounded=0;entryX=0.5;entryY=1;entryDx=0;entryDy=0;exitX=0.5;exitY=0;exitDx=0;exitDy=0;" edge="1" parent="1" source="FkQ8xObF-9nmcdaI6U2C-50" target="FkQ8xObF-9nmcdaI6U2C-53">
          <mxGeometry width="50" height="50" relative="1" as="geometry">
            <mxPoint x="160" y="590" as="sourcePoint" />
            <mxPoint x="210" y="540" as="targetPoint" />
          </mxGeometry>
        </mxCell>
        <mxCell id="FkQ8xObF-9nmcdaI6U2C-57" value="(1, 1)" style="edgeLabel;html=1;align=center;verticalAlign=middle;resizable=0;points=[];" vertex="1" connectable="0" parent="FkQ8xObF-9nmcdaI6U2C-55">
          <mxGeometry x="-0.115" relative="1" as="geometry">
            <mxPoint as="offset" />
          </mxGeometry>
        </mxCell>
        <mxCell id="FkQ8xObF-9nmcdaI6U2C-63" value="" style="ellipse;whiteSpace=wrap;html=1;aspect=fixed;fillColor=#0050ef;fontColor=#ffffff;strokeColor=#001DBC;" vertex="1" parent="1">
          <mxGeometry x="90" y="590" width="10" height="10" as="geometry" />
        </mxCell>
        <mxCell id="FkQ8xObF-9nmcdaI6U2C-64" value="" style="ellipse;whiteSpace=wrap;html=1;aspect=fixed;fillColor=#0050ef;fontColor=#ffffff;strokeColor=#001DBC;" vertex="1" parent="1">
          <mxGeometry x="90" y="610" width="10" height="10" as="geometry" />
        </mxCell>
        <mxCell id="FkQ8xObF-9nmcdaI6U2C-65" value="" style="ellipse;whiteSpace=wrap;html=1;aspect=fixed;" vertex="1" parent="1">
          <mxGeometry x="90" y="630" width="10" height="10" as="geometry" />
        </mxCell>
        <mxCell id="FkQ8xObF-9nmcdaI6U2C-66" value="id" style="text;html=1;align=center;verticalAlign=middle;resizable=0;points=[];autosize=1;strokeColor=none;fillColor=none;" vertex="1" parent="1">
          <mxGeometry x="60" y="580" width="30" height="30" as="geometry" />
        </mxCell>
        <mxCell id="FkQ8xObF-9nmcdaI6U2C-67" value="email" style="text;html=1;align=center;verticalAlign=middle;resizable=0;points=[];autosize=1;strokeColor=none;fillColor=none;" vertex="1" parent="1">
          <mxGeometry x="40" y="600" width="50" height="30" as="geometry" />
        </mxCell>
        <mxCell id="FkQ8xObF-9nmcdaI6U2C-69" value="" style="endArrow=none;html=1;rounded=0;exitX=1;exitY=0.5;exitDx=0;exitDy=0;entryX=0.001;entryY=0.087;entryDx=0;entryDy=0;entryPerimeter=0;" edge="1" parent="1" source="FkQ8xObF-9nmcdaI6U2C-63">
          <mxGeometry width="50" height="50" relative="1" as="geometry">
            <mxPoint x="110" y="590" as="sourcePoint" />
            <mxPoint x="110" y="595" as="targetPoint" />
          </mxGeometry>
        </mxCell>
        <mxCell id="FkQ8xObF-9nmcdaI6U2C-70" value="" style="endArrow=none;html=1;rounded=0;exitX=1;exitY=0.5;exitDx=0;exitDy=0;entryX=0.001;entryY=0.087;entryDx=0;entryDy=0;entryPerimeter=0;" edge="1" parent="1">
          <mxGeometry width="50" height="50" relative="1" as="geometry">
            <mxPoint x="100" y="614.9300000000001" as="sourcePoint" />
            <mxPoint x="110" y="614.9300000000001" as="targetPoint" />
          </mxGeometry>
        </mxCell>
        <mxCell id="FkQ8xObF-9nmcdaI6U2C-71" value="" style="endArrow=none;html=1;rounded=0;exitX=1;exitY=0.5;exitDx=0;exitDy=0;entryX=0.001;entryY=0.087;entryDx=0;entryDy=0;entryPerimeter=0;" edge="1" parent="1">
          <mxGeometry width="50" height="50" relative="1" as="geometry">
            <mxPoint x="100" y="634.9300000000001" as="sourcePoint" />
            <mxPoint x="110" y="634.9300000000001" as="targetPoint" />
          </mxGeometry>
        </mxCell>
        <mxCell id="FkQ8xObF-9nmcdaI6U2C-72" value="" style="ellipse;whiteSpace=wrap;html=1;aspect=fixed;" vertex="1" parent="1">
          <mxGeometry x="90" y="650" width="10" height="10" as="geometry" />
        </mxCell>
        <mxCell id="FkQ8xObF-9nmcdaI6U2C-73" value="" style="endArrow=none;html=1;rounded=0;exitX=1;exitY=0.5;exitDx=0;exitDy=0;entryX=0;entryY=1;entryDx=0;entryDy=0;" edge="1" parent="1" target="FkQ8xObF-9nmcdaI6U2C-50">
          <mxGeometry width="50" height="50" relative="1" as="geometry">
            <mxPoint x="100" y="654.9300000000001" as="sourcePoint" />
            <mxPoint x="110" y="654.9300000000001" as="targetPoint" />
            <Array as="points">
              <mxPoint x="110" y="655" />
            </Array>
          </mxGeometry>
        </mxCell>
        <mxCell id="FkQ8xObF-9nmcdaI6U2C-75" value="password" style="text;html=1;align=center;verticalAlign=middle;resizable=0;points=[];autosize=1;strokeColor=none;fillColor=none;" vertex="1" parent="1">
          <mxGeometry x="20" y="620" width="70" height="30" as="geometry" />
        </mxCell>
        <mxCell id="FkQ8xObF-9nmcdaI6U2C-76" value="name" style="text;html=1;align=center;verticalAlign=middle;resizable=0;points=[];autosize=1;strokeColor=none;fillColor=none;" vertex="1" parent="1">
          <mxGeometry x="40" y="640" width="50" height="30" as="geometry" />
        </mxCell>
      </root>
    </mxGraphModel>
  </diagram>
</mxfile>
